<svg width="160" height="90" viewBox="0 0 160 90" fill="none" xmlns="http://www.w3.org/2000/svg">
<rect width="160" height="90" rx="8" fill="#3E3E3E"/>
<rect x="8" y="23" width="48" height="8" rx="4" fill="#6E6E6E"/>
<rect x="8" y="35" width="48" height="8" rx="4" fill="#6E6E6E"/>
<rect x="8" y="47" width="48" height="8" rx="4" fill="#6E6E6E"/>
<rect x="8" y="59" width="48" height="8" rx="4" fill="#6E6E6E"/>
<path d="M64 44.5C63.7239 44.5 63.5 44.7239 63.5 45C63.5 45.2761 63.7239 45.5 64 45.5V45V44.5ZM96 45L91 42.1132V47.8868L96 45ZM64 45V45.5H91.5V45V44.5H64V45Z" fill="#6E6E6E"/>
<rect x="104" y="21" width="48" height="48" rx="4" fill="#6E6E6E"/>
</svg>
