<svg width="96" height="97" viewBox="0 0 96 97" fill="none" xmlns="http://www.w3.org/2000/svg">
<rect x="0.5" y="1" width="95" height="95" rx="47.5" stroke="#6E6E6E"/>
<rect x="8.5" y="9" width="79" height="79" rx="39.5" stroke="#6E6E6E" stroke-linecap="square" stroke-dasharray="4 4"/>
<path d="M48.4 47.0333C45.3733 46.2467 44.4 45.4333 44.4 44.1667C44.4 42.7133 45.7466 41.7 48 41.7C49.8933 41.7 50.84 42.42 51.1866 43.5667C51.3466 44.1 51.7866 44.5 52.3466 44.5H52.7466C53.6266 44.5 54.2533 43.6333 53.9466 42.8067C53.3866 41.2333 52.08 39.9267 50 39.42V38.5C50 37.3933 49.1066 36.5 48 36.5C46.8933 36.5 46 37.3933 46 38.5V39.38C43.4133 39.94 41.3333 41.62 41.3333 44.1933C41.3333 47.2733 43.88 48.8067 47.6 49.7C50.9333 50.5 51.6 51.6733 51.6 52.9133C51.6 53.8333 50.9466 55.3 48 55.3C45.8 55.3 44.6666 54.5133 44.2266 53.3933C44.0266 52.8733 43.5733 52.5 43.0266 52.5H42.6533C41.76 52.5 41.1333 53.4067 41.4666 54.2333C42.2266 56.0867 44 57.18 46 57.6067V58.5C46 59.6067 46.8933 60.5 48 60.5C49.1066 60.5 50 59.6067 50 58.5V57.6333C52.6 57.14 54.6666 55.6333 54.6666 52.9C54.6666 49.1133 51.4266 47.82 48.4 47.0333Z" fill="#CFCFCF"/>
</svg>
