<svg width="166" height="118" viewBox="0 0 166 118" fill="none" xmlns="http://www.w3.org/2000/svg">
<rect width="166" height="46" rx="8" fill="#262626"/>
<path d="M31.1062 19L31.8962 17.25L33.6462 16.46C34.0362 16.28 34.0362 15.73 33.6462 15.55L31.8962 14.76L31.1062 13C30.9262 12.61 30.3762 12.61 30.1962 13L29.4062 14.75L27.6462 15.54C27.2562 15.72 27.2562 16.27 27.6462 16.45L29.3962 17.24L30.1862 19C30.3662 19.39 30.9262 19.39 31.1062 19ZM23.1462 20.5L21.5562 17C21.2062 16.22 20.0862 16.22 19.7362 17L18.1462 20.5L14.6462 22.09C13.8662 22.45 13.8662 23.56 14.6462 23.91L18.1462 25.5L19.7362 29C20.0962 29.78 21.2062 29.78 21.5562 29L23.1462 25.5L26.6462 23.91C27.4262 23.55 27.4262 22.44 26.6462 22.09L23.1462 20.5ZM30.1862 27L29.3962 28.75L27.6462 29.54C27.2562 29.72 27.2562 30.27 27.6462 30.45L29.3962 31.24L30.1862 33C30.3662 33.39 30.9162 33.39 31.0962 33L31.8862 31.25L33.6462 30.46C34.0362 30.28 34.0362 29.73 33.6462 29.55L31.8962 28.76L31.1062 27C30.9262 26.61 30.3662 26.61 30.1862 27Z" fill="#E7E7E7"/>
<path d="M45.14 25.24L40.2 16.38H43.06L45.94 21.7C46.0467 21.9 46.14 22.0867 46.22 22.26C46.3 22.4333 46.38 22.6067 46.46 22.78C46.5267 22.66 46.58 22.5467 46.62 22.44C46.66 22.3333 46.7067 22.2267 46.76 22.12C46.8267 22 46.9 21.86 46.98 21.7L49.84 16.38H52.62L47.7 25.24V31H45.14V25.24ZM51.4027 26.04C51.4027 25.0133 51.6293 24.1133 52.0827 23.34C52.536 22.5533 53.1627 21.94 53.9627 21.5C54.7627 21.06 55.6693 20.84 56.6827 20.84C57.7093 20.84 58.616 21.06 59.4027 21.5C60.2027 21.94 60.8293 22.5533 61.2827 23.34C61.736 24.1133 61.9627 25.0133 61.9627 26.04C61.9627 27.0667 61.736 27.9733 61.2827 28.76C60.8293 29.5333 60.2027 30.14 59.4027 30.58C58.616 31.02 57.7093 31.24 56.6827 31.24C55.6693 31.24 54.7627 31.02 53.9627 30.58C53.1627 30.14 52.536 29.5333 52.0827 28.76C51.6293 27.9733 51.4027 27.0667 51.4027 26.04ZM53.8427 26.04C53.8427 26.64 53.9627 27.1667 54.2027 27.62C54.456 28.0733 54.7893 28.4267 55.2027 28.68C55.6293 28.9333 56.1227 29.06 56.6827 29.06C57.2427 29.06 57.736 28.9333 58.1627 28.68C58.5893 28.4267 58.9227 28.0733 59.1627 27.62C59.4027 27.1667 59.5227 26.64 59.5227 26.04C59.5227 25.4267 59.4027 24.9 59.1627 24.46C58.9227 24.0067 58.5893 23.6533 58.1627 23.4C57.736 23.1467 57.2427 23.02 56.6827 23.02C56.1227 23.02 55.6293 23.1467 55.2027 23.4C54.7893 23.6533 54.456 24.0067 54.2027 24.46C53.9627 24.9 53.8427 25.4267 53.8427 26.04ZM70.3623 21.12H72.8023V31H70.5423L70.3623 29.68C70.069 30.1467 69.629 30.5267 69.0423 30.82C68.4557 31.1133 67.829 31.26 67.1623 31.26C66.029 31.26 65.1423 30.9 64.5023 30.18C63.8623 29.46 63.5423 28.5 63.5423 27.3V21.12H65.9823V26.44C65.9823 27.3733 66.1623 28.0467 66.5223 28.46C66.8823 28.8733 67.4023 29.08 68.0823 29.08C68.8557 29.08 69.429 28.8533 69.8023 28.4C70.1757 27.9333 70.3623 27.2333 70.3623 26.3V21.12ZM83.6331 16.38V31H81.0731V16.38H83.6331ZM86.8531 25.96H83.0131V23.68H86.3131C87.1931 23.68 87.8598 23.46 88.3131 23.02C88.7798 22.5667 89.0131 21.94 89.0131 21.14C89.0131 20.34 88.7798 19.7267 88.3131 19.3C87.8598 18.8733 87.2065 18.66 86.3531 18.66H82.7731V16.38H86.8531C87.8398 16.38 88.6931 16.58 89.4131 16.98C90.1331 17.38 90.6931 17.94 91.0931 18.66C91.4931 19.3667 91.6931 20.2 91.6931 21.16C91.6931 22.0933 91.4931 22.9267 91.0931 23.66C90.6931 24.38 90.1331 24.9467 89.4131 25.36C88.6931 25.76 87.8398 25.96 86.8531 25.96ZM99.6866 21.08V23.34H98.7866C97.8932 23.34 97.1932 23.58 96.6866 24.06C96.1799 24.5267 95.9266 25.24 95.9266 26.2V31H93.4866V21.14H95.7866L95.9866 23.18H95.7466C95.8799 22.5267 96.1932 21.9933 96.6866 21.58C97.1799 21.1667 97.8199 20.96 98.6066 20.96C98.7799 20.96 98.9532 20.9667 99.1266 20.98C99.2999 20.9933 99.4866 21.0267 99.6866 21.08ZM100.426 26.04C100.426 25.0133 100.653 24.1133 101.106 23.34C101.559 22.5533 102.186 21.94 102.986 21.5C103.786 21.06 104.693 20.84 105.706 20.84C106.733 20.84 107.639 21.06 108.426 21.5C109.226 21.94 109.853 22.5533 110.306 23.34C110.759 24.1133 110.986 25.0133 110.986 26.04C110.986 27.0667 110.759 27.9733 110.306 28.76C109.853 29.5333 109.226 30.14 108.426 30.58C107.639 31.02 106.733 31.24 105.706 31.24C104.693 31.24 103.786 31.02 102.986 30.58C102.186 30.14 101.559 29.5333 101.106 28.76C100.653 27.9733 100.426 27.0667 100.426 26.04ZM102.866 26.04C102.866 26.64 102.986 27.1667 103.226 27.62C103.479 28.0733 103.813 28.4267 104.226 28.68C104.653 28.9333 105.146 29.06 105.706 29.06C106.266 29.06 106.759 28.9333 107.186 28.68C107.613 28.4267 107.946 28.0733 108.186 27.62C108.426 27.1667 108.546 26.64 108.546 26.04C108.546 25.4267 108.426 24.9 108.186 24.46C107.946 24.0067 107.613 23.6533 107.186 23.4C106.759 23.1467 106.266 23.02 105.706 23.02C105.146 23.02 104.653 23.1467 104.226 23.4C103.813 23.6533 103.479 24.0067 103.226 24.46C102.986 24.9 102.866 25.4267 102.866 26.04ZM116.98 31.26C116.02 31.26 115.193 31.0467 114.5 30.62C113.82 30.18 113.287 29.5733 112.9 28.8C112.527 28.0267 112.34 27.1267 112.34 26.1C112.34 25.0733 112.527 24.1667 112.9 23.38C113.287 22.58 113.84 21.9533 114.56 21.5C115.28 21.0467 116.133 20.82 117.12 20.82C117.813 20.82 118.447 20.96 119.02 21.24C119.593 21.5067 120.033 21.8867 120.34 22.38V16.12H122.76V31H120.52L120.36 29.46C120.067 30.02 119.613 30.46 119 30.78C118.4 31.1 117.727 31.26 116.98 31.26ZM117.52 29.02C118.093 29.02 118.587 28.9 119 28.66C119.413 28.4067 119.733 28.0533 119.96 27.6C120.2 27.1333 120.32 26.6067 120.32 26.02C120.32 25.42 120.2 24.9 119.96 24.46C119.733 24.0067 119.413 23.6533 119 23.4C118.587 23.1333 118.093 23 117.52 23C116.96 23 116.473 23.1333 116.06 23.4C115.647 23.6533 115.327 24.0067 115.1 24.46C114.887 24.9133 114.78 25.4333 114.78 26.02C114.78 26.6067 114.887 27.1267 115.1 27.58C115.327 28.0333 115.647 28.3867 116.06 28.64C116.473 28.8933 116.96 29.02 117.52 29.02ZM132.003 21.12H134.443V31H132.183L132.003 29.68C131.71 30.1467 131.27 30.5267 130.683 30.82C130.096 31.1133 129.47 31.26 128.803 31.26C127.67 31.26 126.783 30.9 126.143 30.18C125.503 29.46 125.183 28.5 125.183 27.3V21.12H127.623V26.44C127.623 27.3733 127.803 28.0467 128.163 28.46C128.523 28.8733 129.043 29.08 129.723 29.08C130.496 29.08 131.07 28.8533 131.443 28.4C131.816 27.9333 132.003 27.2333 132.003 26.3V21.12ZM136.188 26.04C136.188 25.0267 136.394 24.1267 136.808 23.34C137.234 22.5533 137.814 21.94 138.548 21.5C139.294 21.0467 140.154 20.82 141.128 20.82C142.474 20.82 143.574 21.1733 144.428 21.88C145.294 22.5733 145.794 23.5133 145.928 24.7H143.488C143.341 24.14 143.068 23.72 142.668 23.44C142.281 23.1467 141.794 23 141.208 23C140.701 23 140.248 23.1267 139.848 23.38C139.461 23.62 139.161 23.9667 138.948 24.42C138.734 24.8733 138.628 25.4133 138.628 26.04C138.628 26.6667 138.728 27.2067 138.928 27.66C139.128 28.1133 139.414 28.4667 139.788 28.72C140.174 28.96 140.628 29.08 141.148 29.08C141.761 29.08 142.268 28.9333 142.668 28.64C143.081 28.3467 143.354 27.9267 143.488 27.38H145.948C145.841 28.1533 145.568 28.8333 145.128 29.42C144.701 29.9933 144.148 30.4467 143.468 30.78C142.788 31.1 142.014 31.26 141.148 31.26C140.148 31.26 139.274 31.0467 138.528 30.62C137.781 30.18 137.201 29.5733 136.788 28.8C136.388 28.0133 136.188 27.0933 136.188 26.04ZM146.784 21.12H153.024V23.16H146.784V21.12ZM151.124 31H148.684V18.04H151.124V31Z" fill="#E7E7E7"/>
<path d="M83 54L80.1132 59L85.8868 59L83 54ZM83 58.5L82.5 58.5L82.5 78L83 78L83.5 78L83.5 58.5L83 58.5Z" fill="#E7E7E7"/>
<rect x="45" y="86" width="76" height="32" rx="4" fill="#262626"/>
<path d="M56.344 96.304V108H54.296V96.304H56.344ZM58.92 103.968H55.848V102.144H58.488C59.192 102.144 59.7253 101.968 60.088 101.616C60.4613 101.253 60.648 100.752 60.648 100.112C60.648 99.472 60.4613 98.9813 60.088 98.64C59.7253 98.2987 59.2027 98.128 58.52 98.128H55.656V96.304H58.92C59.7093 96.304 60.392 96.464 60.968 96.784C61.544 97.104 61.992 97.552 62.312 98.128C62.632 98.6933 62.792 99.36 62.792 100.128C62.792 100.875 62.632 101.541 62.312 102.128C61.992 102.704 61.544 103.157 60.968 103.488C60.392 103.808 59.7093 103.968 58.92 103.968ZM69.1868 100.064V101.872H68.4668C67.7521 101.872 67.1921 102.064 66.7868 102.448C66.3814 102.821 66.1788 103.392 66.1788 104.16V108H64.2268V100.112H66.0668L66.2268 101.744H66.0348C66.1414 101.221 66.3921 100.795 66.7868 100.464C67.1814 100.133 67.6934 99.968 68.3228 99.968C68.4614 99.968 68.6001 99.9733 68.7388 99.984C68.8774 99.9947 69.0268 100.021 69.1868 100.064ZM69.7784 104.032C69.7784 103.211 69.9597 102.491 70.3224 101.872C70.685 101.243 71.1864 100.752 71.8264 100.4C72.4664 100.048 73.1917 99.872 74.0024 99.872C74.8237 99.872 75.549 100.048 76.1784 100.4C76.8184 100.752 77.3197 101.243 77.6824 101.872C78.045 102.491 78.2264 103.211 78.2264 104.032C78.2264 104.853 78.045 105.579 77.6824 106.208C77.3197 106.827 76.8184 107.312 76.1784 107.664C75.549 108.016 74.8237 108.192 74.0024 108.192C73.1917 108.192 72.4664 108.016 71.8264 107.664C71.1864 107.312 70.685 106.827 70.3224 106.208C69.9597 105.579 69.7784 104.853 69.7784 104.032ZM71.7304 104.032C71.7304 104.512 71.8264 104.933 72.0184 105.296C72.221 105.659 72.4877 105.941 72.8184 106.144C73.1597 106.347 73.5544 106.448 74.0024 106.448C74.4504 106.448 74.845 106.347 75.1864 106.144C75.5277 105.941 75.7944 105.659 75.9864 105.296C76.1784 104.933 76.2744 104.512 76.2744 104.032C76.2744 103.541 76.1784 103.12 75.9864 102.768C75.7944 102.405 75.5277 102.123 75.1864 101.92C74.845 101.717 74.4504 101.616 74.0024 101.616C73.5544 101.616 73.1597 101.717 72.8184 101.92C72.4877 102.123 72.221 102.405 72.0184 102.768C71.8264 103.12 71.7304 103.541 71.7304 104.032ZM83.0216 108.208C82.2536 108.208 81.5923 108.037 81.0376 107.696C80.4936 107.344 80.067 106.859 79.7576 106.24C79.459 105.621 79.3096 104.901 79.3096 104.08C79.3096 103.259 79.459 102.533 79.7576 101.904C80.067 101.264 80.5096 100.763 81.0856 100.4C81.6616 100.037 82.3443 99.856 83.1336 99.856C83.6883 99.856 84.195 99.968 84.6536 100.192C85.1123 100.405 85.4643 100.709 85.7096 101.104V96.096H87.6456V108H85.8536L85.7256 106.768C85.491 107.216 85.1283 107.568 84.6376 107.824C84.1576 108.08 83.619 108.208 83.0216 108.208ZM83.4536 106.416C83.9123 106.416 84.307 106.32 84.6376 106.128C84.9683 105.925 85.2243 105.643 85.4056 105.28C85.5976 104.907 85.6936 104.485 85.6936 104.016C85.6936 103.536 85.5976 103.12 85.4056 102.768C85.2243 102.405 84.9683 102.123 84.6376 101.92C84.307 101.707 83.9123 101.6 83.4536 101.6C83.0056 101.6 82.6163 101.707 82.2856 101.92C81.955 102.123 81.699 102.405 81.5176 102.768C81.347 103.131 81.2616 103.547 81.2616 104.016C81.2616 104.485 81.347 104.901 81.5176 105.264C81.699 105.627 81.955 105.909 82.2856 106.112C82.6163 106.315 83.0056 106.416 83.4536 106.416ZM95.0399 100.096H96.9919V108H95.1839L95.0399 106.944C94.8052 107.317 94.4532 107.621 93.9839 107.856C93.5145 108.091 93.0132 108.208 92.4799 108.208C91.5732 108.208 90.8639 107.92 90.3519 107.344C89.8399 106.768 89.5839 106 89.5839 105.04V100.096H91.5359V104.352C91.5359 105.099 91.6799 105.637 91.9679 105.968C92.2559 106.299 92.6719 106.464 93.2159 106.464C93.8345 106.464 94.2932 106.283 94.5919 105.92C94.8905 105.547 95.0399 104.987 95.0399 104.24V100.096ZM98.3878 104.032C98.3878 103.221 98.5531 102.501 98.8838 101.872C99.2251 101.243 99.6891 100.752 100.276 100.4C100.873 100.037 101.561 99.856 102.34 99.856C103.417 99.856 104.297 100.139 104.98 100.704C105.673 101.259 106.073 102.011 106.18 102.96H104.228C104.11 102.512 103.892 102.176 103.572 101.952C103.262 101.717 102.873 101.6 102.404 101.6C101.998 101.6 101.636 101.701 101.316 101.904C101.006 102.096 100.766 102.373 100.596 102.736C100.425 103.099 100.34 103.531 100.34 104.032C100.34 104.533 100.42 104.965 100.58 105.328C100.74 105.691 100.969 105.973 101.268 106.176C101.577 106.368 101.94 106.464 102.356 106.464C102.846 106.464 103.252 106.347 103.572 106.112C103.902 105.877 104.121 105.541 104.228 105.104H106.196C106.11 105.723 105.892 106.267 105.54 106.736C105.198 107.195 104.756 107.557 104.212 107.824C103.668 108.08 103.049 108.208 102.356 108.208C101.556 108.208 100.857 108.037 100.26 107.696C99.6624 107.344 99.1984 106.859 98.8678 106.24C98.5478 105.611 98.3878 104.875 98.3878 104.032ZM106.865 100.096H111.857V101.728H106.865V100.096ZM110.337 108H108.385V97.632H110.337V108Z" fill="#CFCFCF"/>
</svg>
