<svg width="120" height="48" viewBox="0 0 120 48" fill="none" xmlns="http://www.w3.org/2000/svg">
<rect y="8" width="32" height="32" rx="16" fill="#262626"/>
<path d="M64 24L59 21.1132L59 26.8868L64 24ZM59.5 24L59.5 23.5L40 23.5L40 24L40 24.5L59.5 24.5L59.5 24Z" fill="#E7E7E7"/>
<rect x="72" width="48" height="48" rx="24" fill="#262626"/>
<path d="M103.106 20L103.896 18.25L105.646 17.46C106.036 17.28 106.036 16.73 105.646 16.55L103.896 15.76L103.106 14C102.926 13.61 102.376 13.61 102.196 14L101.406 15.75L99.6462 16.54C99.2562 16.72 99.2562 17.27 99.6462 17.45L101.396 18.24L102.186 20C102.366 20.39 102.926 20.39 103.106 20ZM95.1462 21.5L93.5562 18C93.2062 17.22 92.0862 17.22 91.7362 18L90.1462 21.5L86.6462 23.09C85.8662 23.45 85.8662 24.56 86.6462 24.91L90.1462 26.5L91.7362 30C92.0962 30.78 93.2062 30.78 93.5562 30L95.1462 26.5L98.6462 24.91C99.4262 24.55 99.4262 23.44 98.6462 23.09L95.1462 21.5ZM102.186 28L101.396 29.75L99.6462 30.54C99.2562 30.72 99.2562 31.27 99.6462 31.45L101.396 32.24L102.186 34C102.366 34.39 102.916 34.39 103.096 34L103.886 32.25L105.646 31.46C106.036 31.28 106.036 30.73 105.646 30.55L103.896 29.76L103.106 28C102.926 27.61 102.366 27.61 102.186 28Z" fill="#E7E7E7"/>
</svg>
