<svg width="96" height="97" viewBox="0 0 96 97" fill="none" xmlns="http://www.w3.org/2000/svg">
<rect x="0.5" y="1" width="95" height="95" rx="47.5" stroke="#6E6E6E"/>
<rect x="8.5" y="9" width="79" height="79" rx="39.5" stroke="#6E6E6E" stroke-linecap="square" stroke-dasharray="4 4"/>
<path d="M50.7467 46.7533L48 45.5L50.7467 44.2466L52 41.5L53.2533 44.2466L56 45.5L53.2533 46.7533L52 49.5L50.7467 46.7533ZM37.3333 52.1666L38.5867 49.42L41.3333 48.1666L38.5867 46.9133L37.3333 44.1666L36.08 46.9133L33.3333 48.1666L36.08 49.42L37.3333 52.1666ZM43.3333 45.5L44.7867 42.2866L48 40.8333L44.7867 39.38L43.3333 36.1666L41.88 39.38L38.6667 40.8333L41.88 42.2866L43.3333 45.5ZM38 60.8333L46 52.82L51.3333 58.1533L62.6667 45.4066L60.7867 43.5266L51.3333 54.1533L46 48.82L36 58.8333L38 60.8333Z" fill="#CFCFCF"/>
</svg>
