<svg width="12" height="11" viewBox="0 0 12 11" fill="none" xmlns="http://www.w3.org/2000/svg">
<path d="M5.0402 0.781953C5.32068 -0.177126 6.67932 -0.177129 6.9598 0.781951L7.65653 3.16436C7.75227 3.49173 8.00826 3.74773 8.33564 3.84347L10.718 4.5402C11.6771 4.82068 11.6771 6.17932 10.718 6.4598L8.33564 7.15653C8.00826 7.25227 7.75227 7.50826 7.65653 7.83564L6.9598 10.218C6.67932 11.1771 5.32068 11.1771 5.0402 10.218L4.34347 7.83564C4.24773 7.50826 3.99174 7.25227 3.66436 7.15653L1.28195 6.4598C0.322874 6.17932 0.322871 4.82068 1.28195 4.5402L3.66436 3.84347C3.99173 3.74773 4.24773 3.49174 4.34347 3.16436L5.0402 0.781953Z" fill="#6E6E6E"/>
</svg>
