<svg width="160" height="90" viewBox="0 0 160 90" fill="none" xmlns="http://www.w3.org/2000/svg">
<rect width="160" height="90" rx="8" fill="#3E3E3E"/>
<path d="M80 25C68.96 25 60 33.96 60 45C60 56.04 68.96 65 80 65C91.04 65 100 56.04 100 45C100 33.96 91.04 25 80 25ZM74.58 53.58L67.4 46.4C66.62 45.62 66.62 44.36 67.4 43.58C68.18 42.8 69.44 42.8 70.22 43.58L76 49.34L89.76 35.58C90.54 34.8 91.8 34.8 92.58 35.58C93.36 36.36 93.36 37.62 92.58 38.4L77.4 53.58C76.64 54.36 75.36 54.36 74.58 53.58Z" fill="#6E6E6E"/>
</svg>
