<svg width="216" height="70" viewBox="0 0 216 70" fill="none" xmlns="http://www.w3.org/2000/svg">
<rect width="80" height="56" transform="translate(0 7)" fill="#9F9F9F"/>
<path d="M21.3333 34.5C21.3333 35.9728 22.5272 37.1667 24 37.1667C25.4728 37.1667 26.6667 35.9728 26.6667 34.5C26.6667 33.0272 25.4728 31.8333 24 31.8333C22.5272 31.8333 21.3333 33.0272 21.3333 34.5ZM58.8868 34.5L56 31.6132L53.1132 34.5L56 37.3868L58.8868 34.5ZM24 34.5V35H56V34.5V34H24V34.5Z" fill="black"/>
<path d="M88 34.5C87.7239 34.5 87.5 34.7239 87.5 35C87.5 35.2761 87.7239 35.5 88 35.5V35V34.5ZM120 35L115 32.1132V37.8868L120 35ZM88 35V35.5H115.5V35V34.5H88V35Z" fill="#6E6E6E"/>
<rect x="128" width="88" height="70" rx="8" fill="#3E3E3E"/>
<rect x="132" y="4" width="80" height="56" rx="4" fill="#CFCFCF"/>
<path d="M153.333 31.5C153.333 32.9728 154.527 34.1667 156 34.1667C157.473 34.1667 158.667 32.9728 158.667 31.5C158.667 30.0272 157.473 28.8333 156 28.8333C154.527 28.8333 153.333 30.0272 153.333 31.5ZM190.887 31.5L188 28.6132L185.113 31.5L188 34.3868L190.887 31.5ZM156 31.5V32H188V31.5V31H156V31.5Z" fill="black"/>
<rect x="132" y="62" width="4" height="4" rx="2" fill="#9F9F9F"/>
</svg>
