<svg width="96" height="97" viewBox="0 0 96 97" fill="none" xmlns="http://www.w3.org/2000/svg">
<rect x="0.5" y="1" width="95" height="95" rx="47.5" stroke="#6E6E6E"/>
<rect x="8.5" y="9" width="79" height="79" rx="39.5" stroke="#6E6E6E" stroke-linecap="square" stroke-dasharray="4 4"/>
<path d="M47.3334 40.7381C46.7086 40.7381 46.1905 41.2562 46.1905 41.881V49.0277C46.1905 49.561 46.4648 50.0486 46.9067 50.3229L52.4534 53.7363C52.9563 54.041 53.6115 53.9039 53.9315 53.4163C54.282 52.8982 54.1144 52.1972 53.5811 51.8772L48.4763 48.8144V41.881C48.4763 41.2562 47.9582 40.7381 47.3334 40.7381Z" fill="#CFCFCF"/>
<path d="M58.2592 46.8334C58.3354 47.3363 58.3811 47.8391 58.3811 48.3572C58.3811 54.3001 53.6572 59.0239 47.7144 59.0239C41.7715 59.0239 37.0476 54.3001 37.0476 48.3572C37.0476 42.4143 41.7715 37.6905 47.7144 37.6905C48.781 37.6905 49.802 37.8429 50.762 38.1324V34.9933C49.7867 34.7648 48.7658 34.6429 47.7144 34.6429C40.0953 34.6429 34 40.7381 34 48.3572C34 55.9763 40.0953 62.0716 47.7144 62.0716C55.3334 62.0716 61.4287 55.9763 61.4287 48.3572C61.4287 47.8391 61.3982 47.3363 61.3373 46.8334H58.2592Z" fill="#CFCFCF"/>
<path d="M64.4764 36.1667H61.4287V33.119C61.4287 32.2809 60.743 31.5952 59.9049 31.5952C59.0668 31.5952 58.3811 32.2809 58.3811 33.119V36.1667H55.3334C54.4953 36.1667 53.8096 36.8524 53.8096 37.6905C53.8096 38.5286 54.4953 39.2143 55.3334 39.2143H58.3811V42.2619C58.3811 43.1 59.0668 43.7858 59.9049 43.7858C60.743 43.7858 61.4287 43.1 61.4287 42.2619V39.2143H64.4764C65.3145 39.2143 66.0002 38.5286 66.0002 37.6905C66.0002 36.8524 65.3145 36.1667 64.4764 36.1667Z" fill="#CFCFCF"/>
</svg>
