<svg width="80" height="81" viewBox="0 0 80 81" fill="none" xmlns="http://www.w3.org/2000/svg">
<rect x="0.5" y="1" width="79" height="79" rx="39.5" stroke="#6E6E6E" stroke-linecap="square" stroke-dasharray="4 4"/>
<path d="M33.6 47.9667C35.9564 47.9667 37.8666 46.0565 37.8666 43.7C37.8666 41.3436 35.9564 39.4334 33.6 39.4334C31.2436 39.4334 29.3333 41.3436 29.3333 43.7C29.3333 46.0565 31.2436 47.9667 33.6 47.9667Z" fill="#CFCFCF"/>
<path d="M43.7333 51.1667C45.2061 51.1667 46.4 49.9728 46.4 48.5C46.4 47.0273 45.2061 45.8334 43.7333 45.8334C42.2606 45.8334 41.0666 47.0273 41.0666 48.5C41.0666 49.9728 42.2606 51.1667 43.7333 51.1667Z" fill="#CFCFCF"/>
<path d="M44.2666 42.6334C47.8013 42.6334 50.6666 39.768 50.6666 36.2334C50.6666 32.6988 47.8013 29.8334 44.2666 29.8334C40.732 29.8334 37.8666 32.6988 37.8666 36.2334C37.8666 39.768 40.732 42.6334 44.2666 42.6334Z" fill="#CFCFCF"/>
</svg>
