<svg width="96" height="97" viewBox="0 0 96 97" fill="none" xmlns="http://www.w3.org/2000/svg">
<rect x="0.5" y="1" width="95" height="95" rx="47.5" stroke="#6E6E6E"/>
<rect x="8.5" y="9" width="79" height="79" rx="39.5" stroke="#6E6E6E" stroke-linecap="square" stroke-dasharray="4 4"/>
<path d="M41.6 55.9667C43.9564 55.9667 45.8666 54.0565 45.8666 51.7C45.8666 49.3436 43.9564 47.4334 41.6 47.4334C39.2436 47.4334 37.3333 49.3436 37.3333 51.7C37.3333 54.0565 39.2436 55.9667 41.6 55.9667Z" fill="#CFCFCF"/>
<path d="M51.7333 59.1667C53.2061 59.1667 54.4 57.9728 54.4 56.5C54.4 55.0273 53.2061 53.8334 51.7333 53.8334C50.2606 53.8334 49.0666 55.0273 49.0666 56.5C49.0666 57.9728 50.2606 59.1667 51.7333 59.1667Z" fill="#CFCFCF"/>
<path d="M52.2666 50.6334C55.8013 50.6334 58.6666 47.768 58.6666 44.2334C58.6666 40.6988 55.8013 37.8334 52.2666 37.8334C48.732 37.8334 45.8666 40.6988 45.8666 44.2334C45.8666 47.768 48.732 50.6334 52.2666 50.6334Z" fill="#CFCFCF"/>
</svg>
