<svg width="74" height="32" viewBox="0 0 74 32" fill="none" xmlns="http://www.w3.org/2000/svg">
<rect x="27.625" y="15.625" width="11.25" height="11.25" rx="5.625" transform="rotate(180 27.625 15.625)" stroke="white" stroke-width="0.75"/>
<rect x="15.625" y="27.625" width="11.25" height="11.25" transform="rotate(180 15.625 27.625)" stroke="white" stroke-width="0.75"/>
<path d="M23.3333 10C23.3333 9.26362 22.7364 8.66667 22 8.66667C21.2636 8.66667 20.6667 9.26362 20.6667 10C20.6667 10.7364 21.2636 11.3333 22 11.3333C22.7364 11.3333 23.3333 10.7364 23.3333 10ZM8.97938 23.0206H11.0206V20.9794H8.97938V23.0206ZM22 10L21.8232 9.82322L9.82322 21.8232L10 22L10.1768 22.1768L22.1768 10.1768L22 10Z" fill="white"/>
<path d="M37.66 24L32.2 9.8H33.22L37.32 20.42C37.4667 20.7933 37.6133 21.1733 37.76 21.56C37.9067 21.9467 38.0533 22.3733 38.2 22.84C38.3467 22.3733 38.5 21.9067 38.66 21.44C38.8333 20.9733 38.9667 20.6267 39.06 20.4L43.14 9.8H44.12L38.68 24H37.66ZM48.338 24.24C47.418 24.24 46.6113 24.0333 45.918 23.62C45.2246 23.1933 44.6846 22.6067 44.298 21.86C43.9113 21.1 43.718 20.22 43.718 19.22C43.718 18.22 43.9046 17.34 44.278 16.58C44.6646 15.82 45.1913 15.2267 45.858 14.8C46.538 14.3733 47.3246 14.16 48.218 14.16C49.058 14.16 49.7913 14.3467 50.418 14.72C51.058 15.0933 51.5513 15.6133 51.898 16.28C52.258 16.9333 52.438 17.7 52.438 18.58V19.22H44.238L44.278 18.46H51.498C51.498 17.42 51.198 16.5867 50.598 15.96C49.998 15.32 49.2046 15 48.218 15C47.5113 15 46.8846 15.1667 46.338 15.5C45.8046 15.8333 45.3846 16.3067 45.078 16.92C44.7846 17.52 44.638 18.22 44.638 19.02C44.638 20.3933 44.9646 21.4667 45.618 22.24C46.2713 23.0133 47.178 23.4 48.338 23.4C49.1913 23.4 49.8846 23.22 50.418 22.86C50.9513 22.4867 51.3113 21.9467 51.498 21.24H52.438C52.158 22.2267 51.6713 22.9733 50.978 23.48C50.298 23.9867 49.418 24.24 48.338 24.24ZM54.7505 24V14.4H55.6705V24H54.7505ZM55.2105 11.46C54.9838 11.46 54.7838 11.38 54.6105 11.22C54.4505 11.0467 54.3705 10.8533 54.3705 10.64C54.3705 10.4133 54.4505 10.2133 54.6105 10.04C54.7838 9.86667 54.9838 9.78 55.2105 9.78C55.4371 9.78 55.6305 9.86667 55.7905 10.04C55.9638 10.2133 56.0505 10.4133 56.0505 10.64C56.0505 10.8533 55.9638 11.0467 55.7905 11.22C55.6305 11.38 55.4371 11.46 55.2105 11.46ZM59.7153 24H58.7953V9.56H59.7153V24ZM62.8364 24V14.4H63.7564V24H62.8364ZM63.2964 11.46C63.0697 11.46 62.8697 11.38 62.6964 11.22C62.5364 11.0467 62.4564 10.8533 62.4564 10.64C62.4564 10.4133 62.5364 10.2133 62.6964 10.04C62.8697 9.86667 63.0697 9.78 63.2964 9.78C63.5231 9.78 63.7164 9.86667 63.8764 10.04C64.0497 10.2133 64.1364 10.4133 64.1364 10.64C64.1364 10.8533 64.0497 11.0467 63.8764 11.22C63.7164 11.38 63.5231 11.46 63.2964 11.46ZM66.6012 24H65.4813L68.9613 19.16L65.5013 14.4H66.6213L69.6013 18.52L72.5813 14.4H73.6813L70.2013 19.2L73.6813 24H72.5613L69.5613 19.86L66.6012 24Z" fill="white"/>
</svg>
